<?xml version="1.0" standalone="no"?>
<!DOCTYPE svg PUBLIC "-//W3C//DTD SVG 20010904//EN"
 "http://www.w3.org/TR/2001/REC-SVG-20010904/DTD/svg10.dtd">
<svg version="1.0" xmlns="http://www.w3.org/2000/svg"
 width="1280.000000pt" height="1280.000000pt" viewBox="0 0 1280.000000 1280.000000"
 preserveAspectRatio="xMidYMid meet">

<g transform="translate(0.000000,1280.000000) scale(0.100000,-0.100000)"
fill="green" stroke="none">
<path d="M5045 12560 c-26 -10 -40 -28 -50 -60 -4 -14 -22 -43 -40 -65 -232
-286 -479 -805 -591 -1242 -15 -60 -22 -73 -39 -73 -45 -1 -89 -39 -255 -225
-304 -338 -617 -741 -831 -1070 -555 -852 -974 -1683 -1183 -2348 -156 -494
-225 -842 -316 -1592 -19 -154 -7 -136 -138 -211 -147 -84 -151 -87 -482 -328
-293 -213 -491 -367 -552 -430 -62 -63 -52 -105 56 -246 169 -218 230 -273
451 -406 355 -212 560 -330 705 -403 69 -35 130 -67 135 -71 6 -5 56 -32 113
-60 l102 -53 133 -166 c186 -234 305 -368 523 -587 298 -301 458 -441 794
-694 79 -59 87 -69 94 -112 34 -217 257 -964 311 -1040 8 -13 15 -34 15 -48 0
-15 7 -35 15 -46 8 -10 15 -28 15 -39 0 -33 55 -138 86 -166 38 -34 154 -116
229 -162 85 -52 270 -115 389 -133 159 -24 421 -1 651 57 156 40 481 178 512
219 6 8 14 26 17 40 2 14 18 55 35 92 17 36 46 110 65 164 73 211 125 356 129
361 3 2 88 -1 189 -8 308 -20 514 -6 913 62 401 68 682 137 927 230 134 50
373 161 438 203 165 106 276 184 333 237 l68 62 87 -27 c193 -58 583 -132 827
-157 145 -14 614 -6 785 14 63 8 131 12 150 10 48 -6 78 20 117 99 65 133 183
490 254 766 48 187 63 320 56 474 -7 132 -17 162 -78 219 -68 64 -302 236
-415 304 -149 91 -387 210 -492 245 -76 26 -87 32 -86 52 1 21 46 299 50 306
0 1 46 -5 100 -14 73 -12 137 -15 242 -11 135 5 144 6 177 31 74 57 268 345
350 521 92 198 161 470 171 675 7 154 -3 192 -62 232 -193 129 -576 328 -814
421 -163 64 -581 207 -606 207 -7 0 -15 4 -18 8 -3 5 99 114 227 243 243 245
339 360 491 587 206 308 307 571 358 927 8 57 13 194 13 375 -1 304 -12 426
-60 645 -13 61 -26 127 -30 147 -3 21 -17 50 -30 66 -13 16 -61 101 -106 188
-87 171 -207 358 -316 494 -37 47 -161 180 -274 295 l-207 210 -66 300 c-93
415 -123 527 -237 885 -80 250 -110 324 -142 354 l-30 29 -121 -6 c-94 -4
-150 -13 -251 -40 -164 -44 -332 -98 -460 -149 -114 -45 -491 -232 -640 -318
l-101 -58 -79 19 c-44 10 -159 32 -255 48 -399 67 -673 88 -941 70 l-177 -11
-162 122 c-89 67 -230 168 -313 223 -345 231 -735 385 -852 337z m226 -176
c136 -43 348 -153 559 -292 135 -89 426 -310 444 -336 8 -14 26 -28 38 -32 13
-4 40 -20 60 -37 44 -35 88 -39 118 -12 11 10 20 28 20 41 0 20 6 23 58 30 77
9 385 -2 552 -21 163 -18 482 -71 553 -91 29 -8 66 -16 82 -18 45 -6 373 -100
520 -150 180 -61 311 -118 590 -258 452 -227 607 -318 776 -453 106 -85 129
-107 312 -290 252 -252 386 -420 512 -638 73 -129 195 -382 195 -407 0 -9 5
-21 10 -26 15 -15 57 -241 70 -385 19 -192 8 -602 -19 -749 -11 -63 -27 -137
-34 -165 l-13 -50 -47 -3 c-57 -4 -187 49 -437 176 l-165 84 -75 -4 c-55 -3
-111 -17 -210 -51 -190 -65 -534 -161 -670 -186 -182 -35 -387 -79 -490 -106
-252 -66 -681 -148 -980 -187 -134 -17 -737 -17 -855 0 -49 8 -144 27 -210 44
-66 17 -133 31 -150 30 -59 -2 -87 -78 -42 -119 27 -25 208 -75 357 -98 145
-23 562 -31 771 -16 308 23 874 124 1209 216 47 13 132 33 190 44 309 61 381
77 560 127 107 30 255 75 329 100 165 56 226 65 273 36 131 -79 438 -217 524
-235 30 -6 54 -16 54 -22 0 -23 -129 -266 -194 -365 -155 -234 -273 -375 -512
-612 -234 -230 -417 -388 -501 -432 -58 -29 -69 -81 -27 -123 21 -21 32 -24
60 -20 35 6 129 64 192 119 18 15 37 28 42 28 17 0 92 -140 132 -243 39 -102
158 -461 158 -475 0 -5 -39 11 -87 35 -98 48 -282 97 -521 140 -125 22 -176
26 -342 26 -186 0 -259 -5 -535 -39 -480 -58 -850 -151 -1157 -291 -164 -74
-414 -206 -488 -256 -64 -43 -122 -87 -203 -153 -24 -19 -27 -18 -27 10 0 63
-127 732 -184 966 -27 112 -52 150 -100 150 -60 0 -81 -66 -51 -165 28 -92
152 -722 180 -920 9 -60 18 -121 20 -135 3 -14 9 -50 14 -80 6 -30 13 -86 16
-125 3 -38 13 -140 22 -227 8 -86 13 -168 9 -181 -8 -32 -235 -268 -335 -349
-78 -63 -224 -161 -323 -217 -86 -48 -162 -71 -239 -71 -62 0 -74 4 -126 37
-32 20 -62 42 -66 50 -4 7 -13 13 -20 13 -29 0 -448 371 -602 532 -104 110
-280 322 -383 463 -84 115 -98 128 -135 121 -41 -8 -57 -30 -57 -77 0 -30 12
-53 59 -116 202 -269 366 -459 529 -614 96 -91 402 -359 476 -417 l29 -22 -76
-153 c-72 -144 -107 -236 -107 -281 0 -29 39 -66 70 -66 37 0 65 30 85 92 24
76 145 318 159 318 6 -1 22 -7 36 -15 33 -19 188 -19 257 -1 107 29 280 125
463 259 123 90 409 376 444 444 l25 50 -31 268 -32 268 25 19 c13 11 35 29 49
41 52 45 187 145 240 179 63 40 250 139 295 155 38 15 274 120 297 133 10 6
25 10 33 10 9 0 26 6 38 14 65 42 452 131 762 175 355 51 626 69 795 52 125
-13 425 -71 529 -103 100 -30 209 -91 286 -160 79 -69 79 -70 120 -273 61
-310 58 -616 -11 -955 -31 -152 -107 -439 -155 -582 -102 -304 -260 -602 -461
-867 -76 -101 -254 -280 -438 -441 -40 -36 -115 -101 -164 -146 -83 -74 -256
-204 -271 -204 -4 0 -41 -21 -83 -47 -243 -147 -602 -271 -1032 -357 -373 -74
-595 -105 -820 -112 -155 -6 -455 8 -468 20 -2 3 16 85 41 183 54 208 84 362
126 638 45 293 51 355 51 507 0 136 0 137 -26 157 -36 28 -60 26 -95 -8 l-29
-29 0 -134 c0 -165 -9 -244 -65 -583 -46 -276 -113 -572 -164 -724 -16 -48
-32 -99 -36 -115 -6 -29 -129 -378 -180 -511 -15 -38 -33 -77 -41 -86 -37 -42
-277 -142 -443 -185 -190 -49 -488 -71 -616 -45 -204 42 -450 182 -507 288
-117 217 -367 1021 -385 1238 -3 39 -10 75 -15 82 -30 38 -99 625 -97 821 l2
146 -27 23 c-33 28 -46 29 -94 4 -58 -30 -75 -89 -37 -127 8 -9 14 -70 18
-196 3 -101 15 -257 27 -347 12 -89 19 -165 16 -168 -7 -8 -183 128 -322 249
-164 142 -503 476 -648 638 -107 119 -277 323 -378 456 -45 59 -53 64 -225
148 -185 91 -384 200 -588 321 -66 39 -176 104 -245 145 -175 103 -231 142
-311 217 -80 76 -166 188 -179 235 -9 28 -7 36 13 53 51 47 233 188 407 314
102 74 222 162 268 195 93 69 311 205 328 206 7 0 13 -57 17 -167 9 -220 32
-435 52 -478 46 -96 167 -49 137 52 -18 63 -40 372 -46 653 l-6 265 40 300
c51 385 75 518 151 820 76 302 182 636 265 834 190 450 376 820 649 1291 357
614 741 1154 1124 1580 47 52 108 120 134 150 l49 55 -6 -50 c-3 -27 -14 -117
-25 -200 -23 -178 -36 -383 -26 -413 9 -31 58 -54 87 -43 44 17 51 37 60 169
36 548 147 980 371 1442 84 172 122 240 209 370 86 128 112 156 163 180 51 23
39 24 136 -6z m4063 -233 c9 -7 44 -101 80 -210 113 -348 158 -511 231 -836
19 -88 38 -169 41 -180 6 -18 5 -18 -13 -5 -83 60 -184 126 -273 177 -153 87
-615 321 -776 393 -127 57 -536 200 -570 200 -25 0 -15 15 29 38 166 92 421
217 517 255 166 65 466 159 580 181 44 8 138 0 154 -13z m661 -5789 c231 -71
592 -217 765 -309 132 -70 368 -211 376 -225 4 -7 9 -21 11 -32 1 -12 5 -40 9
-62 13 -89 -71 -437 -147 -609 -51 -115 -174 -315 -270 -438 -43 -55 -150 -73
-313 -51 -159 20 -144 6 -138 137 8 195 -22 445 -83 682 -59 228 -214 710
-276 859 -16 37 -29 70 -29 73 0 4 7 3 95 -25z m313 -2372 c196 -78 458 -232
671 -392 57 -43 107 -78 110 -78 18 0 29 -57 24 -122 -6 -64 -4 -71 10 -65 14
5 17 -1 17 -36 0 -56 -23 -201 -50 -312 -43 -185 -177 -604 -231 -722 l-28
-63 -45 0 c-24 0 -81 -8 -127 -17 -126 -25 -688 -25 -849 0 -296 46 -630 116
-653 136 -4 4 32 43 80 87 218 198 353 354 483 556 219 343 329 600 440 1027
11 41 13 43 41 37 16 -3 65 -20 107 -36z"/>
<path d="M6420 10081 c-131 -18 -364 -115 -495 -206 -134 -92 -245 -214 -245
-269 0 -41 26 -66 69 -66 28 0 44 11 108 79 78 84 179 159 278 208 133 66 289
113 378 113 77 0 188 -43 301 -117 227 -149 337 -245 598 -521 72 -76 93 -92
117 -92 33 0 71 39 71 74 0 36 -33 76 -200 245 -185 186 -307 286 -499 413
-188 123 -320 161 -481 139z"/>
<path d="M5089 8487 c-180 -54 -300 -171 -371 -363 -18 -50 -22 -81 -22 -204
-1 -135 1 -150 27 -214 41 -103 93 -183 172 -262 80 -80 169 -134 294 -178 77
-27 99 -30 211 -30 105 0 134 3 184 21 71 27 177 95 211 135 82 98 163 361
150 493 -16 179 -80 318 -200 439 -90 92 -161 132 -289 165 -111 29 -263 28
-367 -2z m360 -149 c92 -28 139 -57 206 -130 81 -87 145 -235 145 -336 0 -54
-30 -181 -61 -263 -70 -181 -215 -258 -420 -223 -306 52 -518 319 -479 603 41
292 302 443 609 349z"/>
</g>
</svg>
